<?xml version="1.0" encoding="utf-8"?>
<!-- Generator: Adobe Illustrator 25.0.1, SVG Export Plug-In . SVG Version: 6.00 Build 0)  -->
<svg version="1.1" id="be65fd3d-d7dd-41cf-8f69-d380a2e3c111"
	 xmlns="http://www.w3.org/2000/svg" xmlns:xlink="http://www.w3.org/1999/xlink" x="0px" y="0px" viewBox="0 0 144 144"
	 style="enable-background:new 0 0 144 144;" xml:space="preserve">
<style type="text/css">
	.st0{fill:none;stroke:#000000;stroke-linejoin:round;}
	.st1{fill:#E13F2A;stroke:#000000;stroke-linejoin:round;}
	.st2{fill:none;stroke:#000000;stroke-linecap:round;stroke-miterlimit:10;}
	.st3{fill:#824379;stroke:#000000;stroke-linecap:round;stroke-miterlimit:10;}
	.st4{fill:#D8AC55;stroke:#000000;stroke-linecap:round;stroke-miterlimit:10;}
	.st5{fill:none;stroke:#000000;stroke-width:0.75;stroke-linecap:round;stroke-miterlimit:10;}
	.st6{fill:#EEEFD5;stroke:#000000;stroke-width:0.75;stroke-linecap:round;stroke-miterlimit:10;}
</style>
<g>
	<path class="st0" d="M52.2,70c-21.9,1-27.7-2.4-27.7-2.4s-0.8-0.3-2.1-1l0,0c-0.5,1.3-0.9,2.5-1.3,3.9c3.9,0.1,7.6,1.7,10.3,4.2
		c0.2,0.1,0.3,0.3,0.6,0.6c0.9,0.9,1.6,1.8,2.3,3c1.4,2.3,2.2,4.9,2.3,7.6c0,0.2,0,0.3,0,0.6c0,8.5-6.8,15.6-15.3,15.8
		c1.1,3.9,2.7,7.7,4.7,11.3c0.9-0.9,1.9-1.6,3.1-2.3c0.5-0.2,0.9-0.5,1.4-0.7l0.7-0.2c1.8-0.7,3.8-1,5.7-1c1.3,0,2.5,0.1,3.8,0.5
		c0.5,0.1,1,0.2,1.5,0.5c1.3,0.5,2.4,1,3.4,1.7c0.9,0.6,1.7,1.3,2.5,2.1c0.8,0.8,1.5,1.6,2.1,2.5c0.2,0.5,0.6,0.9,0.8,1.4
		c1.3,2.3,1.8,4.8,1.8,7.3c0,3.9-1.5,7.8-4.2,10.8c3.6,1.9,7.3,3.4,11.2,4.6c0.2-4.8,2.6-9.3,6.5-12c0.3-0.2,0.8-0.6,1.3-0.8
		c2.4-1.4,5.2-2.2,8-2.2c1.8,0,3.6,0.3,5.3,0.9l0.7,0.2c0.3,0.1,0.8,0.3,1.1,0.5l0.3,0.1c0.3,0.2,0.7,0.3,1,0.6
		c0.3,0.2,0.8,0.6,1.1,0.9c3.6,2.9,5.7,7,6.1,11.6c3.8-1.1,7.6-2.6,11-4.6c-0.3-0.3-0.6-0.8-0.9-1.1c-0.7-0.9-1.3-2.1-1.7-3.1
		c-0.2-0.5-0.3-0.9-0.5-1.4c-0.2-0.9-0.5-1.8-0.6-2.7c-0.2-1.7-0.2-3.4,0.1-5.2c0.1-0.5,0.2-1,0.3-1.5c0.1-0.5,0.3-0.9,0.5-1.5
		c0.3-0.7,0.7-1.4,1-2.1c0.7-1.1,1.5-2.2,2.4-3.2c5.2-5.2,13.1-6.1,19.2-2.4l0.6,0.3c0.6,0.3,1.1,0.8,1.7,1.4
		c1.8-3.4,3.4-7.1,4.5-10.9c-4.7-0.3-9-2.9-11.8-6.6c-0.5-0.6-0.8-1.3-1.1-1.8c-0.1-0.2-0.2-0.5-0.3-0.7c-0.2-0.5-0.3-0.9-0.6-1.4
		c-1.9-5.6-0.6-11.7,3.4-16c0.1-0.2,0.3-0.3,0.6-0.6c0.7-0.7,1.5-1.3,2.3-1.8c1.5-0.9,3-1.7,4.7-2.1c0.5-0.1,0.9-0.2,1.4-0.3
		c0.1,0,0.2,0,0.2,0c0.5-0.1,0.9-0.1,1.4-0.1c-1.1-3.8-2.6-7.4-4.5-10.9c-5.4,4.7-13.3,5.2-19.2,1.1l0,0c-1.4,0.6-2.9,1-4.5,1.5l0,0
		c1.1,1.9,0.9,4.5-0.7,6.1c-1.9,2.1-5.2,2.2-7.2,0.2c-1-1-1.6-2.4-1.5-3.9c-5.7,1.4-11.5,2.4-17.3,3.1c-3.3,0.5-6.4,0.8-9.3,1
		c-2.9,0.2-5.6,0.5-8.1,0.7 M105.2,81.3c-2.9,0-5.2,2.3-5.2,5.2c0,2.9,2.3,5.2,5.2,5.2l0,0c2.9,0,5.2-2.3,5.2-5.2l0,0
		C110.4,83.6,108.1,81.3,105.2,81.3z M100.1,103.9L100.1,103.9c-2.1-2.1-5.3-1.9-7.2,0c-1.9,1.9-1.9,5.3,0,7.2
		c1.9,1.9,5.3,1.9,7.2,0l0,0l0,0C102,109.1,102,105.9,100.1,103.9z M75.3,111.2c-2.9,0-5.2,2.3-5.2,5.2c0,2.9,2.3,5.2,5.2,5.2l0,0
		c2.9,0,5.2-2.3,5.2-5.2l0,0C80.4,113.5,78.1,111.2,75.3,111.2z M57.8,104L57.8,104c-2.1-2.1-5.3-1.9-7.2,0c-1.9,1.9-1.9,5.3,0,7.2
		s5.3,1.9,7.2,0S59.7,105.9,57.8,104z M45.3,81.3c-2.9,0-5.2,2.3-5.2,5.2c0,2.9,2.3,5.2,5.2,5.2c2.9,0,5.2-2.3,5.2-5.2l0,0
		C50.5,83.6,48.2,81.3,45.3,81.3z M65.6,44.2c-4.4,0.9-8.7,1.6-13.2,1.9 M90.7,36c0.5-0.2,0.8-0.3,1.3-0.6c1.1-0.6,2.1-1,3-1.5"/>
	<path class="st0" d="M65.6,44.2c8.6-1.8,16.9-4.6,25-8.2"/>
	<path class="st1" d="M75.2,125.3c-8.5,0-15.3,6.6-15.8,15.1c10.3,3,21.3,3,31.6-0.1C90.6,131.8,83.6,125.3,75.2,125.3z"/>
	<path class="st1" d="M75.3,111.2c-2.9,0-5.2,2.3-5.2,5.2c0,2.9,2.3,5.2,5.2,5.2c2.9,0,5.2-2.3,5.2-5.2l0,0
		C80.5,113.5,78.2,111.2,75.3,111.2z"/>
	<path class="st0" d="M38.2,43.9c-0.6,0.5-1,0.9-1.5,1.4c0.2,0.6,1.4,0.9,3.7,1h0.8h1.1h3.6h0.6h0.2c0.9,0,2.1,0,3.1-0.1
		c0.8,0,1.7-0.1,2.6-0.1"/>
	<path class="st0" d="M56.5,69.7c-1.5,0.1-3,0.2-4.5,0.2"/>
	<path class="st0" d="M55.2,60.3c-1.3,0.2-2.4,0.3-3.6,0.5"/>
	<path class="st1" d="M102.7,113.9c-6,6-6.2,15.3-0.7,21.6c9.4-5.2,17.2-12.9,22.3-22.3C118,107.8,108.5,108.1,102.7,113.9z"/>
	<circle class="st1" cx="96.5" cy="107.5" r="5.2"/>
	<path class="st1" d="M36.4,86.3c0-8.6-6.8-15.6-15.3-15.8c-3.1,10.3-3.1,21.3,0,31.7C29.6,101.8,36.4,94.8,36.4,86.3z"/>
	<path class="st1" d="M45.3,81.3c-2.9,0-5.2,2.3-5.2,5.2c0,2.9,2.3,5.2,5.2,5.2c2.9,0,5.2-2.3,5.2-5.2
		C50.5,83.6,48.2,81.3,45.3,81.3L45.3,81.3z"/>
	<path class="st1" d="M114.1,86.6c0,8.2,6.4,15.2,14.7,15.8c3.1-10.3,3.1-21.3,0.1-31.6C120.6,71.3,114.1,78.2,114.1,86.6z"/>
	<path class="st1" d="M105.2,81.3c-2.9,0-5.2,2.3-5.2,5.2c0,2.9,2.3,5.2,5.2,5.2s5.2-2.3,5.2-5.2l0,0
		C110.3,83.6,108.1,81.3,105.2,81.3z"/>
	<path class="st1" d="M100.7,62.4c0.5,0.8,0.8,1.7,0.8,2.7l0,0c0,2.9-2.3,5.2-5.2,5.2c-2.9,0-5.2-2.3-5.2-5.2c0-0.1,0-0.1,0-0.2"/>
	<path class="st1" d="M47.7,113.8c-6.1-6.1-15.8-6.2-22-0.3c5.2,9.4,12.9,17.2,22.4,22.3C53.9,129.5,53.7,119.8,47.7,113.8z"/>
	<circle class="st1" cx="54.1" cy="107.6" r="5.2"/>
	<path class="st1" d="M124.5,59.8c-5.4,4.7-13.3,5.2-19.2,1.1c5.4-1.8,10.5-4.4,15.3-7.3C121.9,55.5,123.3,57.6,124.5,59.8z"/>
	<path class="st2" d="M33.2,37.8L33.2,37.8L32.6,38"/>
	<polyline class="st2" points="37.2,38.2 36.5,38.4 35.6,38.6 35,38.6 34.6,38.7 34.2,38.8 	"/>
	<path class="st3" d="M29.2,39.8L29.2,39.8c-3.6,1.9-6,3.6-7.6,4.6c-7.2,4.7-9.3,10.8-8.7,14.4c0.5,2.6,6.2,6.1,9.4,7.8l0,0
		c1.1,0.7,2.1,1,2.1,1s5.8,3.4,27.7,2.4c1.4-0.1,2.9-0.1,4.5-0.2c1.9-0.1,3.9-0.2,6-0.5c0.7,0,1.4-0.1,2.2-0.2c2.9-0.2,6-0.7,9.3-1
		c5.8-0.7,11.6-1.7,17.3-3.1c3.4-0.8,6.5-1.6,9.3-2.5l0,0c1.6-0.5,3.1-1,4.5-1.5l0,0c5.4-1.8,10.5-4.4,15.3-7.3
		c2.1-1.3,3.9-2.7,5.6-4.5c0,0,9.4-9.2,0.1-15.5c-12.7-7.4-28.9-8-28.9-8h-0.1"/>
	<path class="st4" d="M35.5,45.1L35.5,45.1l-0.1,0.1L35,45.3c-0.7,0.2-1.3,0.8-1.5,1.6c0,0.2-0.1,0.3-0.1,0.6c0,0.1,0,0.2,0,0.5
		c0,0.1,0,0.1,0,0.2c0,0,0,0,0,0.1c0.3,2.1,0.9,5.4,1.1,7.8c0.3,4,1.9,4.4,1.9,4.4c1.9,0.8,4,1.1,6.2,1.1c0.2,0,0.6,0,0.8,0
		c2.3,0,4.6-0.2,6.9-0.5c1.1-0.1,2.3-0.3,3.6-0.5c4.7-0.7,9.8-1.8,15-3c3.3-0.8,6.6-1.6,9.8-2.5l4.6-1.3c4.7-1.3,9.4-3,13.7-5.2
		c6.3-3.3,8.6-6.5,8.9-8v-0.1c0.6-2.3-5.7-10.9-6.3-11.7c-0.6-0.5-1.4-0.8-2.2-0.9L35.5,45.1z"/>
	<path class="st3" d="M36.2,44.3L36.2,44.3c0,0.2,0,0.2,0,0.3l0,0c0.2,0.6,1.4,0.9,3.7,1c0,0,0,0,0.1,0h0.7h0.1h1.1h0.8h2.6l0,0h0.6
		l0,0H46h0.1c0.9,0,2.1,0,3.1-0.1c0.8,0,1.7-0.1,2.6-0.1c4.5-0.3,8.8-1,13.2-1.9c8.6-1.8,16.9-4.6,25-8.2c0.5-0.2,0.8-0.3,1.3-0.6
		c1.1-0.6,2.1-1,3-1.5c6.3-3.7,4.7-5.5,3.9-6c-0.1-0.1-0.2-0.1-0.2-0.1v0.1c0,0-0.5-0.8-1.1-2.1l0,0c-3.6-6.5-7.4-12.7-11.8-18.8
		C80.5,0.9,72.7,4,72.7,4l-23.6,9.7c0,0-6.9,0.2-10.7,2.4l-1.7,27.4"/>
	<path class="st2" d="M94.4,26.2L94.4,26.2"/>
	<polyline class="st2" points="37,44.4 37.1,44.4 37.1,44.3 	"/>
	<path class="st2" d="M37.4,36.8c0,0.3,0,0.8,0,1.1"/>
	<path class="st2" d="M36.7,22.3v0.6"/>
	<path class="st2" d="M37,28c0,0.3,0,0.7,0,1.1"/>
	<path class="st2" d="M49.6,14.3c0,0,27.7,0.7,27.6-3.2"/>
	<path class="st2" d="M82.1,14.9c4.8,9.2,9.5,11.2,12.4,11.3l0,0c1.8,0.1,2.9-0.5,2.9-0.5"/>
	<path class="st2" d="M45.2,23c0,0,0.6,7.7,4.6,12.6c0.1,0.1,0.2,0.2,0.3,0.5c2.2,2.5,5.4,3.8,8.7,3.3c5.3-0.6,8.5-4,10.4-7.8
		c0.2-0.3,0.3-0.7,0.5-1c1.5-3.6,2.3-7.4,2.2-11.3"/>
	<path class="st5" d="M40.4,46.3c-0.7-0.7-1.4-1.4-2.1-2.2l-0.8-1.1c-0.7-1-1.4-2.2-2.1-3.2c-0.5-0.8-0.9-1.7-1.4-2.5
		c-0.8-1.7-1.5-3.6-2.1-5.5c-0.9-3.1-1.4-6.3-1.4-9.5c-0.1-3,0.1-6,0.7-8.9c0-0.2,0-0.5,0.2-0.6"/>
	<path class="st5" d="M26.7,20.1L24.9,19c-0.2,0.6,0.1,0.8,0.3,1.1c0.8,1.5,1.9,2.9,3.2,4c0.7,0.7,1.4,1.3,2.2,1.8
		c0.3,0.1,0.1,0.5,0.2,0.8c-0.5,0-0.7-0.3-1-0.6c-0.9-0.8-1.6-1.8-2.5-2.6c-0.7-0.6-1.5-1-2.4-1.3L26.7,20.1z"/>
	<path class="st5" d="M46.7,46.4C46.7,46.4,46.6,46.3,46.7,46.4C46.6,46.3,46.6,46.3,46.7,46.4c-0.1-0.1-0.2-0.2-0.2-0.2v0.1l0,0
		c0,0,0,0,0,0.1"/>
	<path class="st5" d="M25.4,15.8c-0.1,0.8,0.1,1.7,0.3,2.4c0.1,0.5,0.3,0.9,0.6,1.4c0,0,0,0.1,0,0.2"/>
	<path class="st6" d="M24.5,23.5c-0.1,0.1,0,0.2,0.1,0.2c1.1,1,2.2,2.3,2.7,3.7c0.5,0.8,0.7,1.7,1.3,2.5c0.8,1.3,1.9,2.3,3.3,3.1
		c0.2,0.2,0.7,0.2,0.6,0.8c-0.6-0.1-1.1-0.5-1.7-0.8c-0.9-0.6-1.7-1.4-2.3-2.3s-1.3-1.8-1.9-2.6c-0.5-0.3-0.9-0.7-1.5-0.7
		c-0.1,0.2,0,0.3,0.2,0.6c0.7,0.9,1.3,1.9,1.5,3.1c0.2,1.4,0.8,2.6,1.6,3.8c0.3,0.5,0.8,0.8,1.3,1.1c0.3,0.2,0.5,0.6,0.9,0.7
		c0.9,0.3,1.7,0.8,2.6,1.1l0,0L34,38c0.2,0.1,0.3,0.1,0.5,0.3c0.1,0.2,0.2,0.5,0.3,0.7l-0.3-0.2c-0.1,0-0.2,0-0.2,0
		c-0.8-0.3-1.5-0.7-2.2-1.1c-0.2-0.1-0.7-0.1-0.7-0.6l-1.5-0.8c-0.3,0.1-0.6-0.1-0.8-0.2c-0.6-0.2-1-0.5-1.6-0.6c-0.1,0-0.2,0-0.2,0
		s0,0.2,0.2,0.3c0.8,0.5,1.5,1,2.3,1.5c0.3,0.2,0.7,0.6,0.9,1h-0.2c-0.5,0.1-0.8-0.1-1.1-0.2c-0.8-0.3-1.5-0.7-2.2-1.1
		c-0.1,0.1-0.2,0.2,0,0.3c0.7,0.8,1.4,1.7,2.1,2.5l0.1,0.1l0,0c1.4,1.7,3.3,2.7,5.5,3.2c0.8,0.1,1.5,0.2,2.3,0.3
		c0.2,0,0.5,0.1,0.6,0.2c0.1,0.1,0.1,0.2,0.1,0.3s0.1,0.1,0.2,0.2h-0.2c-0.1,0-0.1,0-0.2,0C37,44.1,36.3,44,35.6,44
		c-1.9-0.1-3.8-0.9-5.3-2.2c-0.3-0.3-0.8-0.7-1.3-0.9c-0.2,0.2-0.1,0.3,0,0.6c0.6,1.1,1.5,2.1,2.6,2.6c0.2,0.2,0.6,0.2,0.8,0.6
		l0.3,0.1c-0.7,0-1.4-0.2-2.2-0.3l0,0c-0.1,0.1,0,0.2,0.1,0.3c0.8,0.6,1.7,1.1,2.6,1.5c0.5,0.2,1,0.5,1.5,0.7l1.5-1.6L37,45l0.5-0.2
		l0.2-1.7l-2.3-4.5c0,0-1.7-4.2-1.8-4.2c-0.1,0-1.6-5.8-1.6-5.8l-0.8-1.9L28,24.6l-1.3-1.8L26,23L25,22.8l0.1,1L24.5,23.5z"/>
	<path class="st5" d="M24.6,22.2c0.3,0.5,0.7,0.8,1.1,1.1c0.1,0.1,0.2,0.2,0.2,0.5"/>
	<path class="st5" d="M26.7,24.3c-0.7-0.5-1.5-0.8-2.3-0.9"/>
	<path class="st6" d="M32.6,7.4c-0.2,1.5-0.6,3-0.8,4.5c-0.1,0.8,0,1.6-0.1,2.5c-0.3,2.7-0.5,5.6-0.3,8.5c0.1,2.2,0.5,4.4,0.9,6.4
		c0.6,2.2,1.3,4.4,2.2,6.5c0.1,0.2,0.2,0.6,0.3,0.8c0.2,0.6,0.5,1,0.8,1.6c0.6,1,1.1,2.1,1.8,3.1c0.1,0.1,0.1,0.1,0.1,0.2
		c0.8,1.3,1.7,2.5,2.6,3.7L41,46l0,0l0,0l4.8,0.1l1.4-4l-0.8,0.3l1.3-2.9L46.5,40l-1,0.2l1.4-3.6l-3,1.7l0.9-2.6l-0.6-1h-0.7l1-6
		l-2.1,2.6l-2.9,2.2l0.8-1.1l1.8-4.9l-0.6-4.6l-1,0.2l-0.3-2.2l-0.8-0.7l-0.2-1.7l-0.7-4.2l-1.9-1.8l-1.3-1c0.1,0,0-2.3,0-2.3
		L32.1,12l2.7-3.6l0.2-2.7l-0.3-3.9L33.3,1l-1.6,2.7l-1-0.3l-1.4,2.4l-0.6,0.1l-0.5,1.9l-0.9,0.3l-0.7,3.7L26,15.2L25,15.6l0.8,3.7
		l-1.1-0.6l2.2,3.8l1.9,2.1l2.1,1l0.6-11.9l-0.6,7.2l1.3,8.1l2.5,7.4l3.4,6.6L36.7,45l0.9,0.7l8.2,0.2c0,0,0,0,0-0.1l0,0
		c0.1-0.8,0.3-1.5,0.8-2.2c0.3-0.5,0.6-0.9,0.7-1.4c-0.7,0.2-1,0.8-1.6,1.1c-0.2-0.2-0.1-0.3,0-0.6c0.5-0.5,0.9-1.1,1.4-1.6
		c0.5-0.6,0.8-1.3,1-1.9c0-0.1,0-0.3,0-0.5c-0.3,0-0.5,0.3-0.7,0.6c-0.5,0.5-0.9,0.8-1.5,1.1c-1.4,0.9-2.3,2.3-2.6,3.9
		c-0.1,0.5-0.1,0.9-0.2,1.4l0,0c0,0,0,0,0,0.1h-0.8c0.1-0.7,0.2-1.3,0.5-1.9c0.5-1.1,1.1-2.2,1.9-3c0.9-1.1,1.6-2.5,1.9-4l-0.1,0.1
		c-0.2,0-0.3,0.2-0.5,0.2c-0.8,0.7-1.6,1.4-2.5,2.1v0.1l-0.1,0.1c-1.3,0.9-2.3,2.2-3,3.6c0,0.1-0.1,0.1-0.2,0.1L40.2,44
		c0-0.7,0.1-1.4,0.5-2.1c0.7-1,1.6-2.1,2.5-3c1.4-1.3,2.2-3.2,2.1-5l-0.1,0.2c-0.3,0.2-0.7,0.6-0.9,1c-0.1,0.2-0.3,0.3-0.6,0.3
		l-0.5,0.6c0.2-0.1,0.5-0.3,0.3-0.7c0-0.1,0-0.3,0.1-0.5c0.7-1.8,0.9-3.7,0.8-5.6c0-0.1,0.1-0.1,0.1-0.2l-0.2,0.2
		c-0.2,0-0.2,0.2-0.3,0.3c-0.5,0.8-0.9,1.5-1.6,2.1c-0.7,0.7-1.5,1.1-2.2,1.7c-1.1,1-2.2,2.3-2.9,3.8c-0.1,0.1-0.1,0.2-0.2,0.5
		c-0.1,0.2-0.2,0.5-0.3,0.7c-0.1,0.2-0.1,0.5-0.3,0.6c-0.2-0.2-0.3-0.7-0.1-0.9c0-0.1,0.1-0.1,0.1-0.2c0.2-0.6,0.6-1.1,0.8-1.6
		c0.3-0.6,0.7-1.1,1.1-1.6c1.1-1.4,2.2-2.9,2.9-4.6c0.7-1.4,0.8-3.1,0.5-4.6c-0.2-1-0.3-2.1-0.2-3.1c0-0.1,0.1-0.2,0.2-0.3l-0.2,0.3
		c-0.3,0.1-0.3,0.5-0.5,0.8c-0.3,0.7-0.7,1.5-1.1,2.2c-0.7,0.9-1.4,1.8-2.2,2.7c-0.9,1-1.7,2.2-2.5,3.2C35,31.4,35,31.5,35,31.6
		l0.1-0.3c0-0.1-0.1-0.2,0-0.5c0.2-0.5,0.3-0.8,0.6-1.3c0.7-1,1.4-2.1,2.3-3c1-1.1,1.8-2.4,2.4-3.9c0.3-0.8,0.3-1.7,0.1-2.5l0.1-0.5
		c0,0.5-0.5,0.8-0.7,1.1c-0.5,1.3-1.3,2.4-2.3,3.2c-0.1,0.1-0.3,0.2-0.6,0.2l-0.3,0.6c0.2-0.3,0.5-0.8,0.8-1.3
		c0.8-0.9,1.5-1.9,1.8-3.2c0.1-0.3,0.1-0.7,0-1l0.2-0.2c-0.3,0.2-0.7,0.6-0.8,0.9c-0.6,0.9-1.1,1.7-1.9,2.4
		c-0.1,0.1-0.3,0.1-0.5,0.3l0.1-0.1c-0.2-0.2-0.1-0.3,0-0.5c0.1-0.1,0.2-0.2,0.3-0.5c0.5-0.5,0.8-1.1,1.1-1.6
		c0.9-1.1,1.3-2.5,1.1-3.9c0-0.2-0.1-0.5-0.1-0.7c-0.1-0.6-0.3-1.1-0.8-1.6c0,0.7-0.1,1.3-0.5,1.8C37.6,16,37.6,16,37.5,16l-0.7,1
		c-0.3-0.1-0.3,0.2-0.5,0.5c-1.3,1.8-2.6,3.7-4.2,5.3c-0.2,0.2-0.3,0.6-0.1,0.8v0.1c1.4-1.6,2.7-3.2,4-4.8c0.6-0.8,1-1.7,1.3-2.7
		c0.3-1,0.3-2.2,0.1-3.3c-0.1-0.3,0-0.3-0.3-0.5c-0.1,0-0.1,0-0.1,0.1c-0.5,1.6-1.3,3.2-2.3,4.6c-0.8,1.1-1.7,2.3-2.7,3.3
		c-0.1,0.1,0,0.2,0,0.3v-0.3c-0.3-0.5,0-0.7,0.2-0.9c1.3-1.4,2.3-3,3.2-4.6c0.6-1,0.9-2.2,1-3.4c0-0.2,0-0.7-0.2-0.7
		c-0.2,0-0.2,0.2-0.2,0.3c-0.5,1-1.3,2.1-2.1,2.9c-0.1,0-0.2,0.2-0.3,0c0.2-0.6,0.6-1,0.9-1.5c0.9-1,1.3-2.5,1.1-3.9V8.1
		c0,0.5-0.3,0.6-0.6,0.9c-0.6,0.9-1.3,1.6-2.2,2.2c-0.1,0.1-0.2,0.1-0.3,0.1v0.1c0-0.3,0.2-0.6,0.5-0.7c0.3-0.2,0.7-0.5,0.9-0.9
		c0.7-1,1.1-2.1,1.6-3.1c0.1-0.2,0.1-0.5,0-0.7v0.2c-0.3,0-0.5,0.2-0.6,0.3c-0.5,0.5-1,0.9-1.5,1.4L34,7.4c0-0.3,0.1-0.5,0.3-0.7
		c0.5-0.7,0.8-1.4,1-2.2C35.5,4,35.5,3.4,35.2,3C35,2.3,34.7,1.6,34.3,1c-0.6,0.2-1.1,0.6-1.4,1.1c-0.6,0.7-0.9,1.7-0.8,2.6
		c0,0.1,0,0.3-0.1,0.5l-0.1,0.3c-0.1-0.1-0.2-0.2-0.3-0.5c-0.3-0.7-0.8-1.3-0.6-1.9L30.9,4c-0.2,0.8-0.1,1.6,0.3,2.3l-0.5-1.1
		c-0.5-0.3-0.3-0.9-0.5-1.4v0.1c-0.5,0.5-0.7,1.1-0.8,1.7c-0.3,1.4-0.1,2.9,0.9,4c0.2,0.3,0.6,0.7,0.9,1.1c0.3,0.5,0.2,0.3,0,0.5
		v0.1c-0.7-0.7-1.3-1.6-1.8-2.4c-0.2-0.5-0.2-1-0.6-1.5l-0.1-0.7c0.1,0.1,0.1,0.3,0,0.6c-0.3,0.8-0.3,1.7,0.1,2.5
		c0.1,0.5,0,0.9,0.3,1.3l-0.2-0.5c-0.3-0.1-0.3-0.5-0.5-0.7c-0.2-0.7-0.6-1.5-0.8-2.2V8c-0.8,1.7-0.7,3.8,0.5,5.4
		c0.7,0.8,1.5,1.6,2.4,2.3c0,0.2-0.1,0.5,0,0.7l-0.1-0.2c-1.5-0.7-2.6-1.9-3.3-3.4c-0.2-0.3-0.3-0.8-0.6-1.3
		c-0.1,0.1-0.2,0.2-0.2,0.3c-0.1,1-0.1,2.2-0.2,3.2c0,1.1,0.6,2.3,1.5,2.9c0.7,0.6,1.5,1,2.3,1.4c0.5,0.2,0.6,0.5,0.3,0.9
		c-1.4-0.6-2.6-1.4-3.6-2.4c-0.3-0.6-0.7-1.1-0.9-1.7c-0.1-0.2-0.5-0.5-0.5-0.7"/>
</g>
</svg>
